<svg width="48" height="48" viewBox="0 0 16 16" fill="none" xmlns="http://www.w3.org/2000/svg">
<title>Julie Guzal</title>
<rect width="16" height="16" fill="#CDFF3E"></rect>
<path d="M3.09377 12C2.41661 12 1.89756 11.829 1.53662 11.487C1.17887 11.1419 1 10.6414 1 9.98534H1.94387C1.94387 10.4237 2.0365 10.7424 2.22177 10.9414C2.40703 11.1372 2.6977 11.2352 3.09377 11.2352C3.49624 11.2352 3.7869 11.1419 3.96578 10.9554C4.14784 10.7657 4.23888 10.4455 4.23888 9.99467V5.92338H5.18275V9.84077C5.18275 10.5776 5.02145 11.1217 4.69884 11.473C4.37942 11.8243 3.8444 12 3.09377 12ZM2.76797 5.92338V5.15856H4.23888V5.92338H2.76797Z" fill="#151515"></path>
<path d="M9.68172 11.9907C9.01415 11.9907 8.43121 11.8414 7.93292 11.543C7.43463 11.2445 7.05453 10.8326 6.79261 10.3071C6.53388 9.7817 6.40452 9.17699 6.40452 8.493C6.40452 7.80902 6.53388 7.20431 6.79261 6.67888C7.05453 6.15345 7.43463 5.74306 7.93292 5.4477C8.43121 5.14923 9.01415 5 9.68172 5C10.4419 5 11.0792 5.19587 11.5934 5.58761C12.1109 5.97935 12.4718 6.55296 12.6762 7.30846H11.6366C11.5024 6.80791 11.2756 6.4286 10.9562 6.17055C10.64 5.9125 10.2151 5.78348 9.68172 5.78348C8.95026 5.78348 8.38809 6.02754 7.99521 6.51566C7.60233 7.00067 7.40589 7.65978 7.40589 8.493C7.40589 9.32623 7.60233 9.9869 7.99521 10.475C8.38809 10.9631 8.95026 11.2072 9.68172 11.2072C9.9692 11.2072 10.2295 11.1714 10.4627 11.0999C10.6959 11.0253 10.9067 10.9103 11.0951 10.7548C11.2836 10.5963 11.4305 10.3786 11.5359 10.1019C11.6413 9.82523 11.694 9.49878 11.694 9.12259H12.6762C12.6762 9.56718 12.5948 9.97291 12.4319 10.3398C12.2722 10.7035 12.055 11.0051 11.7803 11.2445C11.5056 11.4808 11.1878 11.6642 10.8268 11.7948C10.4691 11.9254 10.0874 11.9907 9.68172 11.9907ZM9.46612 9.12259V8.35776H11.694V9.12259H9.46612Z" fill="#151515"></path>
<path d="M14.8419 11.8461C14.7365 11.9487 14.6055 12 14.449 12C14.2925 12 14.1615 11.9487 14.0561 11.8461C13.9507 11.7404 13.898 11.6129 13.898 11.4637C13.898 11.3082 13.9507 11.1792 14.0561 11.0766C14.1615 10.9709 14.2925 10.9181 14.449 10.9181C14.6055 10.9181 14.7365 10.9709 14.8419 11.0766C14.9473 11.1792 15 11.3082 15 11.4637C15 11.6129 14.9473 11.7404 14.8419 11.8461Z" fill="#151515"></path>
</svg>
