<svg width="78" height="40" viewBox="0 0 78 40" fill="none" xmlns="http://www.w3.org/2000/svg">
<title>Julie Guzal</title>
<path d="M11.6653 40C7.89254 40 5.00068 39.0229 2.98973 37.0686C0.996578 35.0966 0 32.2363 0 28.4877H5.25873C5.25873 30.9927 5.77481 32.8137 6.80698 33.9507C7.83915 35.07 9.45859 35.6296 11.6653 35.6296C13.9076 35.6296 15.527 35.0966 16.5236 34.0306C17.538 32.9469 18.0452 31.117 18.0452 28.541V5.27648H23.3039V27.6616C23.3039 31.8721 22.4052 34.9811 20.6078 36.9887C18.8282 38.9962 15.8474 40 11.6653 40ZM9.8501 5.27648V0.906063H18.0452V5.27648H9.8501Z" fill="currentColor"/>
<path d="M48.3696 39.9467C44.6502 39.9467 41.4025 39.0939 38.6263 37.3884C35.8501 35.6829 33.7324 33.3289 32.2731 30.3265C30.8316 27.324 30.1109 23.8685 30.1109 19.96C30.1109 16.0515 30.8316 12.596 32.2731 9.5936C33.7324 6.59116 35.8501 4.24606 38.6263 2.55829C41.4025 0.852765 44.6502 0 48.3696 0C52.6051 0 56.1554 1.11925 59.0205 3.35776C61.9035 5.59627 63.9144 8.87408 65.0534 13.1912H59.2608C58.5133 10.3309 57.2498 8.16345 55.4702 6.68887C53.7084 5.2143 51.3415 4.47702 48.3696 4.47702C44.2943 4.47702 41.1622 5.87164 38.9733 8.66089C36.7844 11.4324 35.6899 15.1988 35.6899 19.96C35.6899 24.7213 36.7844 28.4966 38.9733 31.2858C41.1622 34.0751 44.2943 35.4697 48.3696 35.4697C49.9713 35.4697 51.4216 35.2654 52.7207 34.8568C54.0199 34.4304 55.1944 33.773 56.2444 32.8847C57.2943 31.9787 58.1129 30.7351 58.7002 29.1539C59.2875 27.5727 59.5811 25.7073 59.5811 23.5576H65.0534C65.0534 26.0982 64.5996 28.4166 63.692 30.513C62.8022 32.5916 61.5921 34.3149 60.0616 35.6829C58.5311 37.0331 56.7604 38.0813 54.7495 38.8274C52.7563 39.5736 50.6297 39.9467 48.3696 39.9467ZM47.1684 23.5576V19.1872H59.5811V23.5576H47.1684Z" fill="currentColor"/>
<path d="M77.1191 39.1206C76.5318 39.7069 75.8022 40 74.9302 40C74.0582 40 73.3285 39.7069 72.7413 39.1206C72.154 38.5165 71.8604 37.7881 71.8604 36.9354C71.8604 36.0471 72.154 35.3098 72.7413 34.7235C73.3285 34.1195 74.0582 33.8175 74.9302 33.8175C75.8022 33.8175 76.5318 34.1195 77.1191 34.7235C77.7064 35.3098 78 36.0471 78 36.9354C78 37.7881 77.7064 38.5165 77.1191 39.1206Z" fill="currentColor"/>
</svg>
