<svg width="24" height="24" viewBox="0 0 24 24" fill="none" xmlns="http://www.w3.org/2000/svg">
<path d="M20.7179 12.8933C20.5944 12.7696 20.4395 12.6818 20.2699 12.6394C20.1003 12.597 19.9223 12.6016 19.7551 12.6527C18.5871 13.0052 17.3453 13.0344 16.162 12.7371C14.9787 12.4398 13.8982 11.8272 13.0356 10.9644C12.173 10.1017 11.5607 9.02125 11.2638 7.83809C10.9668 6.65494 10.9965 5.41342 11.3496 4.24578C11.4011 4.07855 11.406 3.90043 11.3638 3.7306C11.3217 3.56077 11.234 3.40565 11.1102 3.28192C10.9865 3.15818 10.8313 3.07052 10.6614 3.02836C10.4916 2.9862 10.3134 2.99113 10.1461 3.04262C8.38944 3.58244 6.84784 4.66252 5.74078 6.12913C4.77266 7.41562 4.18228 8.94639 4.03589 10.5497C3.88949 12.1529 4.19287 13.7653 4.91198 15.2058C5.6311 16.6462 6.73749 17.8579 8.10702 18.7047C9.47655 19.5516 11.055 20.0001 12.6653 20C14.5454 20.0055 16.3753 19.3943 17.8746 18.2602C19.3407 17.1523 20.4199 15.6102 20.9586 13.8534C21.0092 13.6866 21.0135 13.5092 20.9711 13.3401C20.9287 13.171 20.8412 13.0165 20.7179 12.8933ZM16.7161 16.7226C15.4184 17.6993 13.8115 18.1745 12.1912 18.0608C10.5708 17.9472 9.04608 17.2522 7.89751 16.1039C6.74895 14.9556 6.05386 13.4312 5.94017 11.8113C5.82648 10.1913 6.30184 8.58478 7.27876 7.28737C7.79281 6.60756 8.42989 6.03021 9.15692 5.5853C9.14247 5.79064 9.13525 5.99678 9.13525 6.20372C9.1378 8.50045 10.0515 10.7024 11.6759 12.3264C13.3003 13.9504 15.5027 14.8639 17.8 14.8665C18.0069 14.8665 18.2131 14.8593 18.4185 14.8448C17.9737 15.5718 17.3962 16.2088 16.7161 16.7226Z" fill="currentColor"/>
</svg>
