<svg width="24" height="24" viewBox="0 0 24 24" fill="none" xmlns="http://www.w3.org/2000/svg">
<path d="M11.0323 4.25806V2.96774C11.0323 2.71108 11.1342 2.46493 11.3157 2.28345C11.4972 2.10196 11.7433 2 12 2C12.2567 2 12.5028 2.10196 12.6843 2.28345C12.8658 2.46493 12.9677 2.71108 12.9677 2.96774V4.25806C12.9677 4.51473 12.8658 4.76087 12.6843 4.94236C12.5028 5.12385 12.2567 5.22581 12 5.22581C11.7433 5.22581 11.4972 5.12385 11.3157 4.94236C11.1342 4.76087 11.0323 4.51473 11.0323 4.25806ZM17.4839 12C17.4839 13.0846 17.1622 14.1449 16.5597 15.0467C15.9571 15.9485 15.1006 16.6514 14.0986 17.0664C13.0965 17.4815 11.9939 17.5901 10.9301 17.3785C9.86638 17.1669 8.88925 16.6446 8.12232 15.8777C7.35538 15.1107 6.8331 14.1336 6.6215 13.0698C6.4099 12.0061 6.5185 10.9035 6.93356 9.90141C7.34863 8.89937 8.05151 8.0429 8.95332 7.44033C9.85514 6.83775 10.9154 6.51613 12 6.51613C13.454 6.51762 14.8479 7.09587 15.876 8.12397C16.9041 9.15207 17.4824 10.546 17.4839 12ZM15.5484 12C15.5484 11.2982 15.3403 10.6122 14.9504 10.0286C14.5605 9.44509 14.0063 8.99029 13.3579 8.72172C12.7095 8.45315 11.9961 8.38288 11.3077 8.51979C10.6194 8.65671 9.98716 8.99466 9.49091 9.49091C8.99466 9.98716 8.65671 10.6194 8.51979 11.3077C8.38288 11.9961 8.45315 12.7095 8.72172 13.3579C8.99029 14.0063 9.44509 14.5605 10.0286 14.9504C10.6122 15.3403 11.2982 15.5484 12 15.5484C12.9408 15.5473 13.8427 15.1731 14.5079 14.5079C15.1731 13.8427 15.5473 12.9408 15.5484 12ZM5.83145 7.20081C5.92147 7.29083 6.02834 7.36223 6.14595 7.41095C6.26357 7.45967 6.38963 7.48474 6.51694 7.48474C6.64424 7.48474 6.7703 7.45967 6.88792 7.41095C7.00553 7.36223 7.1124 7.29083 7.20242 7.20081C7.29244 7.11079 7.36385 7.00392 7.41256 6.8863C7.46128 6.76869 7.48636 6.64263 7.48636 6.51532C7.48636 6.38802 7.46128 6.26196 7.41256 6.14434C7.36385 6.02673 7.29244 5.91986 7.20242 5.82984L6.23468 4.8621C6.05288 4.6803 5.8063 4.57816 5.54919 4.57816C5.29209 4.57816 5.04551 4.6803 4.86371 4.8621C4.68191 5.0439 4.57977 5.29047 4.57977 5.54758C4.57977 5.80469 4.68191 6.05126 4.86371 6.23306L5.83145 7.20081ZM5.83145 16.7976L4.86371 17.7653C4.77369 17.8553 4.70228 17.9622 4.65357 18.0798C4.60485 18.1974 4.57977 18.3235 4.57977 18.4508C4.57977 18.5781 4.60485 18.7042 4.65357 18.8218C4.70228 18.9394 4.77369 19.0463 4.86371 19.1363C5.04551 19.3181 5.29209 19.4202 5.54919 19.4202C5.6765 19.4202 5.80256 19.3952 5.92017 19.3464C6.03779 19.2977 6.14466 19.2263 6.23468 19.1363L7.20242 18.1685C7.38422 17.9867 7.48636 17.7402 7.48636 17.4831C7.48636 17.226 7.38422 16.9794 7.20242 16.7976C7.02062 16.6158 6.77404 16.5136 6.51694 16.5136C6.25983 16.5136 6.01325 16.6158 5.83145 16.7976ZM17.4839 7.48387C17.611 7.48397 17.7369 7.45902 17.8544 7.41045C17.9718 7.36189 18.0786 7.29065 18.1685 7.20081L19.1363 6.23306C19.2263 6.14305 19.2977 6.03618 19.3464 5.91856C19.3952 5.80095 19.4202 5.67489 19.4202 5.54758C19.4202 5.42027 19.3952 5.29421 19.3464 5.1766C19.2977 5.05898 19.2263 4.95212 19.1363 4.8621C19.0463 4.77208 18.9394 4.70067 18.8218 4.65195C18.7042 4.60323 18.5781 4.57816 18.4508 4.57816C18.3235 4.57816 18.1974 4.60323 18.0798 4.65195C17.9622 4.70067 17.8553 4.77208 17.7653 4.8621L16.7976 5.82984C16.6614 5.96519 16.5686 6.13798 16.5309 6.32624C16.4933 6.51449 16.5124 6.70969 16.586 6.88701C16.6596 7.06434 16.7842 7.21577 16.9441 7.32206C17.104 7.42834 17.2919 7.48466 17.4839 7.48387ZM18.1685 16.7992C17.9867 16.6174 17.7402 16.5153 17.4831 16.5153C17.226 16.5153 16.9794 16.6174 16.7976 16.7992C16.6158 16.981 16.5136 17.2276 16.5136 17.4847C16.5136 17.7418 16.6158 17.9884 16.7976 18.1702L17.7653 19.1379C17.9471 19.3197 18.1937 19.4218 18.4508 19.4218C18.7079 19.4218 18.9545 19.3197 19.1363 19.1379C19.3181 18.9561 19.4202 18.7095 19.4202 18.4524C19.4202 18.1953 19.3181 17.9487 19.1363 17.7669L18.1685 16.7992ZM5.22581 12C5.22581 11.7433 5.12385 11.4972 4.94236 11.3157C4.76087 11.1342 4.51473 11.0323 4.25806 11.0323H2.96774C2.71108 11.0323 2.46493 11.1342 2.28345 11.3157C2.10196 11.4972 2 11.7433 2 12C2 12.2567 2.10196 12.5028 2.28345 12.6843C2.46493 12.8658 2.71108 12.9677 2.96774 12.9677H4.25806C4.51473 12.9677 4.76087 12.8658 4.94236 12.6843C5.12385 12.5028 5.22581 12.2567 5.22581 12ZM12 18.7742C11.7433 18.7742 11.4972 18.8762 11.3157 19.0576C11.1342 19.2391 11.0323 19.4853 11.0323 19.7419V21.0323C11.0323 21.2889 11.1342 21.5351 11.3157 21.7166C11.4972 21.898 11.7433 22 12 22C12.2567 22 12.5028 21.898 12.6843 21.7166C12.8658 21.5351 12.9677 21.2889 12.9677 21.0323V19.7419C12.9677 19.4853 12.8658 19.2391 12.6843 19.0576C12.5028 18.8762 12.2567 18.7742 12 18.7742ZM21.0323 11.0323H19.7419C19.4853 11.0323 19.2391 11.1342 19.0576 11.3157C18.8762 11.4972 18.7742 11.7433 18.7742 12C18.7742 12.2567 18.8762 12.5028 19.0576 12.6843C19.2391 12.8658 19.4853 12.9677 19.7419 12.9677H21.0323C21.2889 12.9677 21.5351 12.8658 21.7166 12.6843C21.898 12.5028 22 12.2567 22 12C22 11.7433 21.898 11.4972 21.7166 11.3157C21.5351 11.1342 21.2889 11.0323 21.0323 11.0323Z" fill="currentColor"/>
</svg>
